<mxfile host="app.diagrams.net" modified="2021-01-14T17:29:23.279Z" agent="5.0 (Windows NT 10.0; Win64; x64) AppleWebKit/537.36 (KHTML, like Gecko) Chrome/87.0.4280.141 Safari/537.36" etag="KyK8uhvQMf-R9hYNLHUF" version="14.2.3" type="github">
  <diagram name="Page-1" id="0783ab3e-0a74-02c8-0abd-f7b4e66b4bec">
    <mxGraphModel dx="868" dy="520" grid="1" gridSize="10" guides="1" tooltips="1" connect="1" arrows="1" fold="1" page="1" pageScale="1" pageWidth="850" pageHeight="1100" background="#ffffff" math="0" shadow="0">
      <root>
        <mxCell id="0" />
        <mxCell id="1" parent="0" />
        <mxCell id="scmIV8sPTrZrMdmaq8iE-23" style="edgeStyle=orthogonalEdgeStyle;rounded=0;orthogonalLoop=1;jettySize=auto;html=1;exitX=1;exitY=0.3333333333333333;exitDx=0;exitDy=0;exitPerimeter=0;entryX=0;entryY=0.375;entryDx=0;entryDy=0;entryPerimeter=0;" edge="1" parent="1" source="scmIV8sPTrZrMdmaq8iE-13" target="scmIV8sPTrZrMdmaq8iE-22">
          <mxGeometry relative="1" as="geometry" />
        </mxCell>
        <mxCell id="scmIV8sPTrZrMdmaq8iE-13" value="Müşteri" style="shape=umlActor;verticalLabelPosition=bottom;verticalAlign=top;shadow=0;fillOpacity=100;autosize=0;metaEdit=0;overflow=visible;labelBackgroundColor=none;labelBorderColor=none;html=1;" vertex="1" parent="1">
          <mxGeometry x="60" y="80" width="30" height="60" as="geometry" />
        </mxCell>
        <mxCell id="scmIV8sPTrZrMdmaq8iE-15" value="Yönetici" style="shape=umlActor;verticalLabelPosition=bottom;verticalAlign=top;shadow=0;fillOpacity=100;autosize=0;metaEdit=0;overflow=visible;labelBackgroundColor=none;labelBorderColor=none;html=1;" vertex="1" parent="1">
          <mxGeometry x="750" y="440" width="30" height="60" as="geometry" />
        </mxCell>
        <mxCell id="scmIV8sPTrZrMdmaq8iE-16" value="Kullanıcı" style="shape=umlActor;verticalLabelPosition=bottom;verticalAlign=top;shadow=0;fillOpacity=100;autosize=0;metaEdit=0;overflow=visible;labelBackgroundColor=none;labelBorderColor=none;html=1;" vertex="1" parent="1">
          <mxGeometry x="60" y="290" width="30" height="60" as="geometry" />
        </mxCell>
        <mxCell id="scmIV8sPTrZrMdmaq8iE-20" value="Eğitmen&lt;br&gt;(Kontrol Elemanı)" style="shape=umlActor;verticalLabelPosition=bottom;verticalAlign=top;shadow=0;fillOpacity=100;autosize=0;metaEdit=0;overflow=visible;labelBackgroundColor=none;labelBorderColor=none;html=1;" vertex="1" parent="1">
          <mxGeometry x="60" y="470" width="30" height="60" as="geometry" />
        </mxCell>
        <mxCell id="scmIV8sPTrZrMdmaq8iE-30" style="edgeStyle=orthogonalEdgeStyle;rounded=0;orthogonalLoop=1;jettySize=auto;html=1;exitX=0.5;exitY=1;exitDx=0;exitDy=0;entryX=0.5;entryY=0;entryDx=0;entryDy=0;" edge="1" parent="1" source="scmIV8sPTrZrMdmaq8iE-22" target="scmIV8sPTrZrMdmaq8iE-27">
          <mxGeometry relative="1" as="geometry" />
        </mxCell>
        <mxCell id="scmIV8sPTrZrMdmaq8iE-22" value="&lt;font style=&quot;font-size: 20px&quot;&gt;&lt;b&gt;Kayıt&lt;/b&gt;&lt;/font&gt;" style="ellipse;whiteSpace=wrap;html=1;shadow=0;labelBackgroundColor=none;" vertex="1" parent="1">
          <mxGeometry x="340" y="70" width="120" height="80" as="geometry" />
        </mxCell>
        <mxCell id="scmIV8sPTrZrMdmaq8iE-24" value="" style="endArrow=classic;html=1;exitX=1;exitY=0.3333333333333333;exitDx=0;exitDy=0;exitPerimeter=0;entryX=0;entryY=0.5;entryDx=0;entryDy=0;" edge="1" parent="1" source="scmIV8sPTrZrMdmaq8iE-16" target="scmIV8sPTrZrMdmaq8iE-22">
          <mxGeometry width="50" height="50" relative="1" as="geometry">
            <mxPoint x="140" y="330" as="sourcePoint" />
            <mxPoint x="440" y="310" as="targetPoint" />
          </mxGeometry>
        </mxCell>
        <mxCell id="scmIV8sPTrZrMdmaq8iE-26" value="" style="endArrow=classic;html=1;exitX=1;exitY=0.3333333333333333;exitDx=0;exitDy=0;exitPerimeter=0;entryX=0;entryY=0.5;entryDx=0;entryDy=0;" edge="1" parent="1" source="scmIV8sPTrZrMdmaq8iE-20">
          <mxGeometry width="50" height="50" relative="1" as="geometry">
            <mxPoint x="100" y="320" as="sourcePoint" />
            <mxPoint x="350" y="130" as="targetPoint" />
          </mxGeometry>
        </mxCell>
        <mxCell id="scmIV8sPTrZrMdmaq8iE-36" style="edgeStyle=orthogonalEdgeStyle;rounded=0;orthogonalLoop=1;jettySize=auto;html=1;exitX=0.5;exitY=1;exitDx=0;exitDy=0;entryX=0.5;entryY=0;entryDx=0;entryDy=0;" edge="1" parent="1" source="scmIV8sPTrZrMdmaq8iE-27" target="scmIV8sPTrZrMdmaq8iE-31">
          <mxGeometry relative="1" as="geometry" />
        </mxCell>
        <mxCell id="scmIV8sPTrZrMdmaq8iE-27" value="&lt;font style=&quot;font-size: 15px&quot;&gt;&lt;b&gt;Kayıt Onaylama&lt;/b&gt;&lt;/font&gt;" style="ellipse;whiteSpace=wrap;html=1;shadow=0;labelBackgroundColor=none;" vertex="1" parent="1">
          <mxGeometry x="340" y="190" width="120" height="80" as="geometry" />
        </mxCell>
        <mxCell id="scmIV8sPTrZrMdmaq8iE-29" value="" style="endArrow=classic;html=1;entryX=1;entryY=0.5;entryDx=0;entryDy=0;exitX=0;exitY=0.3333333333333333;exitDx=0;exitDy=0;exitPerimeter=0;" edge="1" parent="1" source="scmIV8sPTrZrMdmaq8iE-15" target="scmIV8sPTrZrMdmaq8iE-27">
          <mxGeometry width="50" height="50" relative="1" as="geometry">
            <mxPoint x="590" y="340" as="sourcePoint" />
            <mxPoint x="640" y="290" as="targetPoint" />
          </mxGeometry>
        </mxCell>
        <mxCell id="scmIV8sPTrZrMdmaq8iE-39" style="edgeStyle=orthogonalEdgeStyle;rounded=0;orthogonalLoop=1;jettySize=auto;html=1;exitX=0.5;exitY=1;exitDx=0;exitDy=0;entryX=0.5;entryY=0;entryDx=0;entryDy=0;" edge="1" parent="1" source="scmIV8sPTrZrMdmaq8iE-31" target="scmIV8sPTrZrMdmaq8iE-37">
          <mxGeometry relative="1" as="geometry" />
        </mxCell>
        <mxCell id="scmIV8sPTrZrMdmaq8iE-31" value="&lt;font style=&quot;font-size: 16px&quot;&gt;Kullanıcı Profili&lt;/font&gt;" style="ellipse;whiteSpace=wrap;html=1;shadow=0;labelBackgroundColor=none;" vertex="1" parent="1">
          <mxGeometry x="340" y="320" width="120" height="80" as="geometry" />
        </mxCell>
        <mxCell id="scmIV8sPTrZrMdmaq8iE-33" value="" style="endArrow=classic;html=1;entryX=0;entryY=0.375;entryDx=0;entryDy=0;entryPerimeter=0;exitX=1;exitY=0.3333333333333333;exitDx=0;exitDy=0;exitPerimeter=0;" edge="1" parent="1" source="scmIV8sPTrZrMdmaq8iE-13" target="scmIV8sPTrZrMdmaq8iE-31">
          <mxGeometry width="50" height="50" relative="1" as="geometry">
            <mxPoint x="280" y="350" as="sourcePoint" />
            <mxPoint x="320" y="280" as="targetPoint" />
          </mxGeometry>
        </mxCell>
        <mxCell id="scmIV8sPTrZrMdmaq8iE-34" value="" style="endArrow=classic;html=1;exitX=1;exitY=0.3333333333333333;exitDx=0;exitDy=0;exitPerimeter=0;entryX=0;entryY=0.5;entryDx=0;entryDy=0;" edge="1" parent="1" source="scmIV8sPTrZrMdmaq8iE-16" target="scmIV8sPTrZrMdmaq8iE-31">
          <mxGeometry width="50" height="50" relative="1" as="geometry">
            <mxPoint x="370" y="350" as="sourcePoint" />
            <mxPoint x="330" y="370" as="targetPoint" />
          </mxGeometry>
        </mxCell>
        <mxCell id="scmIV8sPTrZrMdmaq8iE-35" value="" style="endArrow=classic;html=1;entryX=0;entryY=0.625;entryDx=0;entryDy=0;entryPerimeter=0;" edge="1" parent="1" target="scmIV8sPTrZrMdmaq8iE-31">
          <mxGeometry width="50" height="50" relative="1" as="geometry">
            <mxPoint x="90" y="490" as="sourcePoint" />
            <mxPoint x="320" y="380" as="targetPoint" />
          </mxGeometry>
        </mxCell>
        <mxCell id="scmIV8sPTrZrMdmaq8iE-42" style="edgeStyle=orthogonalEdgeStyle;rounded=0;orthogonalLoop=1;jettySize=auto;html=1;exitX=0.5;exitY=1;exitDx=0;exitDy=0;entryX=0.5;entryY=0;entryDx=0;entryDy=0;" edge="1" parent="1" source="scmIV8sPTrZrMdmaq8iE-37" target="scmIV8sPTrZrMdmaq8iE-41">
          <mxGeometry relative="1" as="geometry" />
        </mxCell>
        <mxCell id="scmIV8sPTrZrMdmaq8iE-37" value="&lt;font style=&quot;font-size: 16px&quot;&gt;Kullanıcı Rol Belirleme&lt;/font&gt;" style="ellipse;whiteSpace=wrap;html=1;shadow=0;labelBackgroundColor=none;" vertex="1" parent="1">
          <mxGeometry x="340" y="440" width="120" height="80" as="geometry" />
        </mxCell>
        <mxCell id="scmIV8sPTrZrMdmaq8iE-38" value="" style="endArrow=classic;html=1;exitX=0;exitY=0.3333333333333333;exitDx=0;exitDy=0;exitPerimeter=0;" edge="1" parent="1" source="scmIV8sPTrZrMdmaq8iE-15">
          <mxGeometry width="50" height="50" relative="1" as="geometry">
            <mxPoint x="740" y="300" as="sourcePoint" />
            <mxPoint x="460" y="470" as="targetPoint" />
          </mxGeometry>
        </mxCell>
        <mxCell id="scmIV8sPTrZrMdmaq8iE-40" value="" style="endArrow=classic;html=1;entryX=0;entryY=0.5;entryDx=0;entryDy=0;" edge="1" parent="1" target="scmIV8sPTrZrMdmaq8iE-37">
          <mxGeometry width="50" height="50" relative="1" as="geometry">
            <mxPoint x="90" y="490" as="sourcePoint" />
            <mxPoint x="410" y="580" as="targetPoint" />
          </mxGeometry>
        </mxCell>
        <mxCell id="scmIV8sPTrZrMdmaq8iE-50" style="edgeStyle=orthogonalEdgeStyle;rounded=0;orthogonalLoop=1;jettySize=auto;html=1;exitX=0.5;exitY=1;exitDx=0;exitDy=0;entryX=0.5;entryY=0;entryDx=0;entryDy=0;" edge="1" parent="1" source="scmIV8sPTrZrMdmaq8iE-41" target="scmIV8sPTrZrMdmaq8iE-49">
          <mxGeometry relative="1" as="geometry" />
        </mxCell>
        <mxCell id="scmIV8sPTrZrMdmaq8iE-41" value="&lt;font style=&quot;font-size: 16px&quot;&gt;Proje Belirleme&lt;/font&gt;" style="ellipse;whiteSpace=wrap;html=1;shadow=0;labelBackgroundColor=none;" vertex="1" parent="1">
          <mxGeometry x="340" y="560" width="120" height="80" as="geometry" />
        </mxCell>
        <mxCell id="scmIV8sPTrZrMdmaq8iE-43" value="" style="endArrow=classic;html=1;entryX=0.075;entryY=0.2;entryDx=0;entryDy=0;entryPerimeter=0;exitX=1;exitY=0.3333333333333333;exitDx=0;exitDy=0;exitPerimeter=0;" edge="1" parent="1" source="scmIV8sPTrZrMdmaq8iE-13" target="scmIV8sPTrZrMdmaq8iE-41">
          <mxGeometry width="50" height="50" relative="1" as="geometry">
            <mxPoint x="100" y="80" as="sourcePoint" />
            <mxPoint x="200" y="540" as="targetPoint" />
          </mxGeometry>
        </mxCell>
        <mxCell id="scmIV8sPTrZrMdmaq8iE-44" value="" style="endArrow=classic;html=1;entryX=0;entryY=0.375;entryDx=0;entryDy=0;entryPerimeter=0;" edge="1" parent="1" target="scmIV8sPTrZrMdmaq8iE-41">
          <mxGeometry width="50" height="50" relative="1" as="geometry">
            <mxPoint x="90" y="310" as="sourcePoint" />
            <mxPoint x="330" y="610" as="targetPoint" />
          </mxGeometry>
        </mxCell>
        <mxCell id="scmIV8sPTrZrMdmaq8iE-45" value="" style="endArrow=classic;html=1;exitX=1;exitY=0.3333333333333333;exitDx=0;exitDy=0;exitPerimeter=0;" edge="1" parent="1" source="scmIV8sPTrZrMdmaq8iE-20">
          <mxGeometry width="50" height="50" relative="1" as="geometry">
            <mxPoint x="250" y="630" as="sourcePoint" />
            <mxPoint x="330" y="610" as="targetPoint" />
          </mxGeometry>
        </mxCell>
        <mxCell id="scmIV8sPTrZrMdmaq8iE-52" style="edgeStyle=orthogonalEdgeStyle;rounded=0;orthogonalLoop=1;jettySize=auto;html=1;exitX=0.5;exitY=1;exitDx=0;exitDy=0;" edge="1" parent="1" source="scmIV8sPTrZrMdmaq8iE-49" target="scmIV8sPTrZrMdmaq8iE-53">
          <mxGeometry relative="1" as="geometry">
            <mxPoint x="400" y="830" as="targetPoint" />
          </mxGeometry>
        </mxCell>
        <mxCell id="scmIV8sPTrZrMdmaq8iE-49" value="&lt;font style=&quot;font-size: 14px&quot;&gt;Proje Sorgulama&lt;br&gt;Raporlama&lt;/font&gt;" style="ellipse;whiteSpace=wrap;html=1;shadow=0;labelBackgroundColor=none;" vertex="1" parent="1">
          <mxGeometry x="340" y="690" width="120" height="80" as="geometry" />
        </mxCell>
        <mxCell id="scmIV8sPTrZrMdmaq8iE-51" value="" style="endArrow=classic;html=1;exitX=1;exitY=0.3333333333333333;exitDx=0;exitDy=0;exitPerimeter=0;entryX=0;entryY=0.4;entryDx=0;entryDy=0;entryPerimeter=0;" edge="1" parent="1" source="scmIV8sPTrZrMdmaq8iE-20" target="scmIV8sPTrZrMdmaq8iE-49">
          <mxGeometry width="50" height="50" relative="1" as="geometry">
            <mxPoint x="70" y="620" as="sourcePoint" />
            <mxPoint x="270" y="730" as="targetPoint" />
          </mxGeometry>
        </mxCell>
        <mxCell id="scmIV8sPTrZrMdmaq8iE-59" style="edgeStyle=orthogonalEdgeStyle;rounded=0;orthogonalLoop=1;jettySize=auto;html=1;exitX=0.5;exitY=1;exitDx=0;exitDy=0;entryX=0.5;entryY=0;entryDx=0;entryDy=0;" edge="1" parent="1" source="scmIV8sPTrZrMdmaq8iE-53" target="scmIV8sPTrZrMdmaq8iE-58">
          <mxGeometry relative="1" as="geometry" />
        </mxCell>
        <mxCell id="scmIV8sPTrZrMdmaq8iE-53" value="&lt;font style=&quot;font-size: 14px&quot;&gt;Rapor Kontrol&lt;/font&gt;" style="ellipse;whiteSpace=wrap;html=1;" vertex="1" parent="1">
          <mxGeometry x="340" y="820" width="120" height="80" as="geometry" />
        </mxCell>
        <mxCell id="scmIV8sPTrZrMdmaq8iE-54" value="" style="endArrow=classic;html=1;entryX=0.917;entryY=0.238;entryDx=0;entryDy=0;entryPerimeter=0;" edge="1" parent="1" target="scmIV8sPTrZrMdmaq8iE-53">
          <mxGeometry width="50" height="50" relative="1" as="geometry">
            <mxPoint x="750" y="460" as="sourcePoint" />
            <mxPoint x="570" y="710" as="targetPoint" />
          </mxGeometry>
        </mxCell>
        <mxCell id="scmIV8sPTrZrMdmaq8iE-58" value="&lt;font style=&quot;font-size: 17px&quot;&gt;Sonuç&lt;/font&gt;" style="ellipse;whiteSpace=wrap;html=1;shadow=0;labelBackgroundColor=none;" vertex="1" parent="1">
          <mxGeometry x="340" y="940" width="120" height="80" as="geometry" />
        </mxCell>
        <mxCell id="scmIV8sPTrZrMdmaq8iE-60" value="" style="endArrow=classic;html=1;entryX=0.95;entryY=0.275;entryDx=0;entryDy=0;entryPerimeter=0;" edge="1" parent="1" target="scmIV8sPTrZrMdmaq8iE-58">
          <mxGeometry width="50" height="50" relative="1" as="geometry">
            <mxPoint x="750" y="460" as="sourcePoint" />
            <mxPoint x="560" y="920" as="targetPoint" />
          </mxGeometry>
        </mxCell>
      </root>
    </mxGraphModel>
  </diagram>
</mxfile>
